<svg fill="none" height="100%" width="100%" viewBox="0 0 564 423" xmlns:xlink="http://www.w3.org/1999/xlink" xmlns="http://www.w3.org/2000/svg"><g transform="matrix(1,0,0,1,282,211.5)" id="i0"><g id="i3" transform="matrix(1,0,0,1,0.5,2)"><path stroke-width="0" stroke="#7a57a0" fill="#000000" d="M0,-156.5C86.433,-156.5,156.5,-86.433,156.5,0C156.5,86.433,86.433,156.5,0,156.5C-86.433,156.5,-156.5,86.433,-156.5,0C-156.5,-86.433,-86.433,-156.5,0,-156.5Z" /></g></g><g transform="matrix(1,0,0,1,297,206.5)" id="i4"><g id="i3" transform="matrix(1,0,0,1,-15.75,5.25)"><ellipse ry="150.75" rx="150.75" cy="0" cx="0" stroke-width="8" stroke="#000000" fill="#000000" /></g></g><g id="i5"><g transform="translate(202,451.5)"><animateTransform repeatCount="indefinite" type="translate" attributeName="transform" dur="2.917s" begin="0s" calcMode="spline" values="202 451.5; 282 211.5; 281 216.5; 281 216.5; 282 211.5; 202 451.5" keyTimes="0; 0.157143; 0.214286; 0.8; 0.871429; 1" keySplines="0.167 0.167 0.667 1; 0.333 0 0.667 1; 0 0 1 1; 0.333 0 0.667 1; 0.333 0 0.833 0.833" fill="freeze" /><g transform="scale(1,1) translate(0,0)"><g id="i6"><path d="M-52.5,-116C-52.5,-116,-148.5,31.75,-148.5,31.75C-148.5,31.75,-137.375,121,-35,146.5C55,169.25,113,101,113,101C113,101,101.5,-75.5,101.5,-75.5C101.5,-75.5,65,-52.5,65,-52.5C65,-52.5,45,-67,17.5,-75.5C-10,-84,-28,-78.5,-28,-78.5C-28,-78.5,-52.5,-116,-52.5,-116Z" stroke-width="0" stroke="#000000" fill="#ffffff"><animate repeatCount="indefinite" attributeName="d" dur="2.917s" begin="0s" calcMode="spline" values="M-52.5,-116C-52.5,-116,-148.5,31.75,-148.5,31.75C-148.5,31.75,-137.375,121,-35,146.5C55,169.25,113,101,113,101C113,101,101.5,-75.5,101.5,-75.5C101.5,-75.5,65,-52.5,65,-52.5C65,-52.5,45,-67,17.5,-75.5C-10,-84,-28,-78.5,-28,-78.5C-28,-78.5,-52.5,-116,-52.5,-116Z; M-52.5,-116C-52.5,-116,-148.5,31.75,-148.5,31.75C-148.5,31.75,-137.375,121,-35,146.5C55,169.25,113,101,113,101C113,101,101.5,-75.5,101.5,-75.5C101.5,-75.5,65,-52.5,65,-52.5C65,-52.5,45,-67,17.5,-75.5C-10,-84,-28,-78.5,-28,-78.5C-28,-78.5,-52.5,-116,-52.5,-116Z; M-62.5,-113C-62.5,-113,-148.5,31.75,-148.5,31.75C-148.5,31.75,-137.375,121,-35,146.5C55,169.25,113,101,113,101C113,101,116,-65.5,116,-65.5C116,-65.5,65,-52.5,65,-52.5C65,-52.5,45,-67,17.5,-75.5C-10,-84,-28,-78.5,-28,-78.5C-28,-78.5,-62.5,-113,-62.5,-113Z; M-62.5,-113C-62.5,-113,-148.5,31.75,-148.5,31.75C-148.5,31.75,-137.375,121,-35,146.5C55,169.25,113,101,113,101C113,101,116,-65.5,116,-65.5C116,-65.5,65,-52.5,65,-52.5C65,-52.5,45,-67,17.5,-75.5C-10,-84,-28,-78.5,-28,-78.5C-28,-78.5,-62.5,-113,-62.5,-113Z; M-52.5,-116C-52.5,-116,-148.5,31.75,-148.5,31.75C-148.5,31.75,-137.375,121,-35,146.5C55,169.25,113,101,113,101C113,101,101.5,-75.5,101.5,-75.5C101.5,-75.5,65,-52.5,65,-52.5C65,-52.5,45,-67,17.5,-75.5C-10,-84,-28,-78.5,-28,-78.5C-28,-78.5,-52.5,-116,-52.5,-116Z; M-52.5,-116C-52.5,-116,-148.5,31.75,-148.5,31.75C-148.5,31.75,-137.375,121,-35,146.5C55,169.25,113,101,113,101C113,101,101.5,-75.5,101.5,-75.5C101.5,-75.5,65,-52.5,65,-52.5C65,-52.5,45,-67,17.5,-75.5C-10,-84,-28,-78.5,-28,-78.5C-28,-78.5,-52.5,-116,-52.5,-116Z" keyTimes="0; 0.3; 0.4; 0.657143; 0.757143; 1" keySplines="0 0 1 1; 0 0 1 1; 0 0 1 1; 0 0 1 1; 0 0 1 1" fill="freeze" /></path></g></g></g></g><g id="i5"><g transform="translate(202,451.5)"><animateTransform repeatCount="indefinite" type="translate" attributeName="transform" dur="2.917s" begin="0s" calcMode="spline" values="202 451.5; 282 211.5; 281 216.5; 281 216.5; 282 211.5; 202 451.5" keyTimes="0; 0.157143; 0.214286; 0.8; 0.871429; 1" keySplines="0.167 0.167 0.667 1; 0.333 0 0.667 1; 0 0 1 1; 0.333 0 0.667 1; 0.333 0 0.833 0.833" fill="freeze" /><g transform="scale(1,1) translate(0,0)"><g transform="matrix(1,0,0,0.989,0,0)" id="i7"><g id="i6"><path stroke-width="0" stroke="#000000" fill="#000000" d="M-7.469,28.244C-10.469,27.869,-16.017,28.208,-16.688,30.406C-17.813,34.092,-10.156,38.375,-10.156,38.375C-10.156,38.375,-2.406,38.958,-0.781,34.844C0.222,32.305,-4.469,28.619,-7.469,28.244Z" /></g></g></g></g></g><g id="i5"><g transform="translate(202,451.5)"><animateTransform repeatCount="indefinite" type="translate" attributeName="transform" dur="2.917s" begin="0s" calcMode="spline" values="202 451.5; 282 211.5; 281 216.5; 281 216.5; 282 211.5; 202 451.5" keyTimes="0; 0.157143; 0.214286; 0.8; 0.871429; 1" keySplines="0.167 0.167 0.667 1; 0.333 0 0.667 1; 0 0 1 1; 0.333 0 0.667 1; 0.333 0 0.833 0.833" fill="freeze" /><g transform="scale(1,1) translate(0,0)"><g transform="matrix(1,0,0,1,0,0)" id="i8"><g id="i6"><path stroke-linecap="round" stroke-width="6" stroke="#000000" d="M-9.562,37.125C-9.562,37.125,-11.437,45.375,-16.562,47C-21.687,48.625,-24.875,49.062,-24.875,49.062" /></g></g></g></g></g><g id="i5"><g transform="translate(202,451.5)"><animateTransform repeatCount="indefinite" type="translate" attributeName="transform" dur="2.917s" begin="0s" calcMode="spline" values="202 451.5; 282 211.5; 281 216.5; 281 216.5; 282 211.5; 202 451.5" keyTimes="0; 0.157143; 0.214286; 0.8; 0.871429; 1" keySplines="0.167 0.167 0.667 1; 0.333 0 0.667 1; 0 0 1 1; 0.333 0 0.667 1; 0.333 0 0.833 0.833" fill="freeze" /><g transform="scale(1,1) translate(0,0)"><g transform="matrix(1,0,0,1,0,0)" id="i9"><g id="i6"><path d="M-2.188,55.5C-2.188,55.5,-7.313,52.625,-9.188,47.125C-11.063,41.625,-9.688,36.812,-9.688,36.812" stroke-linejoin="round" stroke-linecap="round" stroke-width="6" stroke="#000000"><animate repeatCount="indefinite" attributeName="d" dur="2.917s" begin="0s" calcMode="spline" values="M-2.188,55.5C-2.188,55.5,-7.313,52.625,-9.188,47.125C-11.063,41.625,-9.688,36.812,-9.688,36.812; M-2.188,55.5C-2.188,55.5,-7.313,52.625,-9.188,47.125C-11.063,41.625,-9.688,36.812,-9.688,36.812; M8.923,51.512C8.923,51.512,-0.62,52.726,-7.688,44.125C-11.378,39.636,-9.688,36.812,-9.688,36.812; M16.562,49.875C16.562,49.875,2,56,-7.688,44.125C-11.361,39.622,-9.688,36.812,-9.688,36.812; M-2.188,55.5C-2.188,55.5,-7.313,52.625,-9.188,47.125C-11.063,41.625,-9.688,36.812,-9.688,36.812; M-2.188,55.5C-2.188,55.5,-7.313,52.625,-9.188,47.125C-11.063,41.625,-9.688,36.812,-9.688,36.812" keyTimes="0; 0.3; 0.4; 0.614286; 0.714286; 1" keySplines="0 0 1 1; 0.333 0 0.833 0.833; 0 0 1 1; 0.167 0.167 0.667 1; 0 0 1 1" fill="freeze" /></path></g></g></g></g></g><g id="i5"><g transform="translate(202,451.5)"><animateTransform repeatCount="indefinite" type="translate" attributeName="transform" dur="2.917s" begin="0s" calcMode="spline" values="202 451.5; 282 211.5; 281 216.5; 281 216.5; 282 211.5; 202 451.5" keyTimes="0; 0.157143; 0.214286; 0.8; 0.871429; 1" keySplines="0.167 0.167 0.667 1; 0.333 0 0.667 1; 0 0 1 1; 0.333 0 0.667 1; 0.333 0 0.833 0.833" fill="freeze" /><g transform="scale(1,1) translate(0,0)"><g transform="matrix(-1.066,0.046,-0.043,-0.999,-92.557,20.587)" id="i10"><g id="i3" transform="matrix(0.94,0.34,-0.34,0.94,-45.688,9.188)"><path d="M0,-14.062C4.867,-14.062,8.812,-7.767,8.812,0C8.812,7.767,4.867,14.062,0,14.062C-4.867,14.062,-8.812,7.767,-8.812,0C-8.812,-7.767,-4.867,-14.062,0,-14.062Z" stroke-width="0" stroke="#bc89f4" fill="#000000"><animate repeatCount="indefinite" attributeName="d" dur="2.917s" begin="0s" calcMode="spline" values="M0,-14.062C4.867,-14.062,8.812,-7.767,8.812,0C8.812,7.767,4.867,14.062,0,14.062C-4.867,14.062,-8.812,7.767,-8.812,0C-8.812,-7.767,-4.867,-14.062,0,-14.062Z; M0,-14.062C4.867,-14.062,8.812,-7.767,8.812,0C8.812,7.767,4.867,14.062,0,14.062C-4.867,14.062,-8.812,7.767,-8.812,0C-8.812,-7.767,-4.867,-14.062,0,-14.062Z; M0.069,6.921C4.936,6.921,8.812,-7.767,8.812,0C8.812,7.767,4.728,11.488,-0.139,11.488C-5.006,11.488,-8.812,7.767,-8.812,0C-8.812,-7.767,-4.798,6.921,0.069,6.921Z; M0.069,6.921C4.936,6.921,8.812,-7.767,8.812,0C8.812,7.767,4.728,11.488,-0.139,11.488C-5.006,11.488,-8.812,7.767,-8.812,0C-8.812,-7.767,-4.798,6.921,0.069,6.921Z; M0,-14.062C4.867,-14.062,8.812,-7.767,8.812,0C8.812,7.767,4.867,14.062,0,14.062C-4.867,14.062,-8.812,7.767,-8.812,0C-8.812,-7.767,-4.867,-14.062,0,-14.062Z; M0,-14.062C4.867,-14.062,8.812,-7.767,8.812,0C8.812,7.767,4.867,14.062,0,14.062C-4.867,14.062,-8.812,7.767,-8.812,0C-8.812,-7.767,-4.867,-14.062,0,-14.062Z" keyTimes="0; 0.328571; 0.371429; 0.628571; 0.671429; 1" keySplines="0 0 1 1; 0 0 1 1; 0 0 1 1; 0 0 1 1; 0 0 1 1" fill="freeze" /></path></g></g></g></g></g><g id="i5"><g transform="translate(202,451.5)"><animateTransform repeatCount="indefinite" type="translate" attributeName="transform" dur="2.917s" begin="0s" calcMode="spline" values="202 451.5; 282 211.5; 281 216.5; 281 216.5; 282 211.5; 202 451.5" keyTimes="0; 0.157143; 0.214286; 0.8; 0.871429; 1" keySplines="0.167 0.167 0.667 1; 0.333 0 0.667 1; 0 0 1 1; 0.333 0 0.667 1; 0.333 0 0.833 0.833" fill="freeze" /><g transform="scale(1,1) translate(0,0)"><g transform="matrix(-1.066,0.046,-0.043,-0.999,-13.807,40.837)" id="i11"><g id="i3" transform="matrix(0.94,0.34,-0.34,0.94,-45.688,9.188)"><path d="M0,-14.062C4.867,-14.062,8.812,-7.767,8.812,0C8.812,7.767,4.867,14.062,0,14.062C-4.867,14.062,-8.812,7.767,-8.812,0C-8.812,-7.767,-4.867,-14.062,0,-14.062Z" stroke-width="0" stroke="#bc89f4" fill="#000000"><animate repeatCount="indefinite" attributeName="d" dur="2.917s" begin="0s" calcMode="spline" values="M0,-14.062C4.867,-14.062,8.812,-7.767,8.812,0C8.812,7.767,4.867,14.062,0,14.062C-4.867,14.062,-8.812,7.767,-8.812,0C-8.812,-7.767,-4.867,-14.062,0,-14.062Z; M0,-14.062C4.867,-14.062,8.812,-7.767,8.812,0C8.812,7.767,4.867,14.062,0,14.062C-4.867,14.062,-8.812,7.767,-8.812,0C-8.812,-7.767,-4.867,-14.062,0,-14.062Z; M0.084,5.804C4.951,5.804,8.812,-7.767,8.812,0C8.812,7.767,5.119,11.367,0.252,11.367C-4.615,11.367,-8.812,7.767,-8.812,0C-8.812,-7.767,-4.783,5.804,0.084,5.804Z; M0.084,5.804C4.951,5.804,8.812,-7.767,8.812,0C8.812,7.767,5.119,11.367,0.252,11.367C-4.615,11.367,-8.812,7.767,-8.812,0C-8.812,-7.767,-4.783,5.804,0.084,5.804Z; M0,-14.062C4.867,-14.062,8.812,-7.767,8.812,0C8.812,7.767,4.867,14.062,0,14.062C-4.867,14.062,-8.812,7.767,-8.812,0C-8.812,-7.767,-4.867,-14.062,0,-14.062Z; M0,-14.062C4.867,-14.062,8.812,-7.767,8.812,0C8.812,7.767,4.867,14.062,0,14.062C-4.867,14.062,-8.812,7.767,-8.812,0C-8.812,-7.767,-4.867,-14.062,0,-14.062Z" keyTimes="0; 0.328571; 0.371429; 0.628571; 0.671429; 1" keySplines="0 0 1 1; 0 0 1 1; 0 0 1 1; 0 0 1 1; 0 0 1 1" fill="freeze" /></path></g></g></g></g></g><g transform="matrix(1,0,0,1,282,211.5)" id="i12"><g id="i2" transform="matrix(1,0,0,1,0,-1)"><path stroke-width="0" stroke="#7a57a0" fill="#f3efc4" d="M-156.25,26.25C-156.25,26.25,-147,120.75,-52.25,151.5C51.233,185.084,118.5,108.25,118.5,108.25C118.5,108.25,129.381,213.035,129.381,213.035C129.381,213.035,-282.5,211.5,-282.5,211.5C-282.5,211.5,-281.5,-36.5,-281.5,-36.5C-281.5,-36.5,-156.25,26.25,-156.25,26.25Z" /></g></g></svg>