<svg fill="none" width="100%" height="100%" viewBox="116 47 333 349" xmlns="http://www.w3.org/2000/svg">
  <g transform="matrix(1,0,0,1,282,211.5)">
    <g transform="matrix(1,0,0,1,0.5,2)">
      <path stroke-width="0" stroke="#7a57a0" fill="#000000" d="M0,-156.5C86.433,-156.5,156.5,-86.433,156.5,0C156.5,86.433,86.433,156.5,0,156.5C-86.433,156.5,-156.5,86.433,-156.5,0C-156.5,-86.433,-86.433,-156.5,0,-156.5Z" />
    </g>
  </g>
  <g transform="matrix(1,0,0,1,297,206.5)">
    <g transform="matrix(1,0,0,1,-15.75,5.25)">
      <ellipse ry="150.75" rx="150.75" cy="0" cx="0" stroke-width="8" stroke="#000000" fill="#000000" />
    </g>
  </g>
  <g transform="translate(281,216.5)">
    <path stroke-width="0" stroke="#000000" fill="#ffffff" d="M-52.5,-116C-52.5,-116,-148.5,31.75,-148.5,31.75C-148.5,31.75,-137.375,121,-35,146.5C55,169.25,113,101,113,101C113,101,101.5,-75.5,101.5,-75.5C101.5,-75.5,65,-52.5,65,-52.5C65,-52.5,45,-67,17.5,-75.5C-10,-84,-28,-78.5,-28,-78.5C-28,-78.5,-52.5,-116,-52.5,-116Z" />
    <g transform="matrix(1,0,0,0.989,0,0)">
      <path stroke-width="0" stroke="#000000" fill="#000000" d="M-7.469,28.244C-10.469,27.869,-16.017,28.208,-16.688,30.406C-17.813,34.092,-10.156,38.375,-10.156,38.375C-10.156,38.375,-2.406,38.958,-0.781,34.844C0.222,32.305,-4.469,28.619,-7.469,28.244Z" />
    </g>
    <path stroke-linecap="round" stroke-width="6" stroke="#000000" fill="none" d="M-9.562,37.125C-9.562,37.125,-11.437,45.375,-16.562,47C-21.687,48.625,-24.875,49.062,-24.875,49.062" />
    <path stroke-linejoin="round" stroke-linecap="round" stroke-width="6" stroke="#000000" fill="none" d="M-2.188,55.5C-2.188,55.5,-7.313,52.625,-9.188,47.125C-11.063,41.625,-9.688,36.812,-9.688,36.812" />
    <g transform="matrix(-1.066,0.046,-0.043,-0.999,-92.557,20.587)">
      <g transform="matrix(0.94,0.34,-0.34,0.94,-45.688,9.188)">
        <path stroke-width="0" stroke="#bc89f4" fill="#000000" d="M0,-14.062C4.867,-14.062,8.812,-7.767,8.812,0C8.812,7.767,4.867,14.062,0,14.062C-4.867,14.062,-8.812,7.767,-8.812,0C-8.812,-7.767,-4.867,-14.062,0,-14.062Z" />
      </g>
    </g>
    <g transform="matrix(-1.066,0.046,-0.043,-0.999,-13.807,40.837)">
      <g transform="matrix(0.94,0.34,-0.34,0.94,-45.688,9.188)">
        <path stroke-width="0" stroke="#bc89f4" fill="#000000" d="M0,-14.062C4.867,-14.062,8.812,-7.767,8.812,0C8.812,7.767,4.867,14.062,0,14.062C-4.867,14.062,-8.812,7.767,-8.812,0C-8.812,-7.767,-4.867,-14.062,0,-14.062Z" />
      </g>
    </g>
  </g>
</svg>